<svg width="27" height="32" viewBox="0 0 27 32" fill="none" xmlns="http://www.w3.org/2000/svg">
<g clip-path="url(#clip0_569_88)">
<path d="M20.4291 0.461867V6.62187C20.4289 6.78164 20.3876 6.93867 20.309 7.07778C20.2304 7.21689 20.1173 7.33339 19.9805 7.416L19.9421 7.43867L18.5005 8.26667L10.12 13.0885L9.10267 13.6736C9.10267 13.6736 9.10027 13.6736 9.09974 13.6763C9.08266 13.6832 9.06646 13.6922 9.05147 13.7029C8.98817 13.7454 8.93629 13.8028 8.90042 13.8701C8.86455 13.9374 8.84578 14.0124 8.84578 14.0887C8.84578 14.1649 8.86455 14.24 8.90042 14.3072C8.93629 14.3745 8.98817 14.4319 9.05147 14.4744C9.06373 14.4828 9.07656 14.4904 9.08987 14.4971L10.2424 15.16L14.1645 17.4163C14.1656 17.4164 14.1665 17.4168 14.1672 17.4176L14.2368 17.4584C14.2983 17.5008 14.3486 17.5575 14.3833 17.6237C14.418 17.6898 14.4362 17.7634 14.4362 17.8381C14.4362 17.9128 14.418 17.9864 14.3833 18.0526C14.3486 18.1187 14.2983 18.1754 14.2368 18.2179L14.1688 18.2563L6.99921 22.3827L6.95947 22.4053C6.82369 22.4797 6.67133 22.5185 6.51654 22.5181C6.37703 22.5178 6.23932 22.4866 6.11334 22.4267L6.07361 22.4056L6.01254 22.3701L1.86214 19.9827L0.486939 19.1909C0.473631 19.1842 0.460721 19.1767 0.448272 19.1685C0.314618 19.0881 0.203734 18.9748 0.126139 18.8395C0.0430117 18.6991 -0.000573856 18.5389 5.70532e-06 18.3757V11.9467C-0.000161404 11.7892 0.0399314 11.6343 0.116475 11.4967C0.193019 11.3592 0.303471 11.2434 0.437339 11.1605C0.440612 11.1575 0.444293 11.155 0.448272 11.1531C0.463207 11.1431 0.478799 11.1342 0.494939 11.1264C0.497333 11.1253 0.499574 11.1238 0.501606 11.1221L1.86161 10.3392L6.45067 7.6992L11.9827 4.51973L19.704 0.0800003C19.7164 0.0716696 19.7293 0.0641858 19.7427 0.0576003C19.8104 0.0197555 19.8867 -7.705e-05 19.9643 3.07832e-07C20.0875 -0.000141359 20.2057 0.0486196 20.2929 0.135571C20.3802 0.222523 20.4293 0.340553 20.4296 0.463734L20.4291 0.461867Z" fill="#01ABFF"/>
<path d="M26.8802 13.6237V20.0517C26.8803 20.2113 26.839 20.3682 26.7604 20.5071C26.6819 20.646 26.5687 20.7623 26.432 20.8445C26.4189 20.8531 26.4053 20.8603 26.3933 20.8672L25.0181 21.6589L23.2784 22.6595L20.4293 24.2981L14.8981 27.4803L7.17784 31.92C7.16554 31.9283 7.15271 31.9358 7.13944 31.9424C7.07126 31.98 6.99462 31.9995 6.91677 31.9992C6.79352 31.9993 6.67525 31.9505 6.58795 31.8635C6.50065 31.7765 6.45145 31.6584 6.45117 31.5352V25.3752C6.45113 25.2156 6.4924 25.0587 6.57095 24.9198C6.6495 24.7809 6.76266 24.6646 6.89944 24.5824C6.91784 24.5707 6.93757 24.5597 6.9565 24.5501L8.37997 23.7301L16.7602 18.9096L17.7645 18.3323C17.7653 18.3325 17.7661 18.3325 17.7669 18.3323L17.8312 18.2957C17.8334 18.2941 17.8357 18.2927 17.8381 18.2915C17.8994 18.2487 17.9495 18.1918 17.9841 18.1256C18.0187 18.0593 18.0368 17.9857 18.0368 17.9109C18.0363 17.8348 18.0174 17.7599 17.9816 17.6927C17.9457 17.6256 17.8941 17.5681 17.8312 17.5253C17.8165 17.5152 17.8009 17.5062 17.7848 17.4987L16.6381 16.8387L12.7149 14.5811C12.7141 14.5813 12.7133 14.5813 12.7125 14.5811L12.6373 14.5371H12.636C12.576 14.4946 12.5271 14.4384 12.4932 14.3731C12.4594 14.3079 12.4417 14.2355 12.4415 14.162C12.4413 14.0885 12.4588 14.016 12.4923 13.9507C12.5259 13.8853 12.5746 13.8289 12.6344 13.7861C12.6344 13.7861 12.6344 13.7861 12.6368 13.7861L12.7149 13.7411C12.7186 13.7384 12.7225 13.7362 12.7266 13.7344L19.8733 9.62292L19.929 9.59066C20.0621 9.52066 20.21 9.48388 20.3603 9.48346C20.5107 9.48305 20.6588 9.519 20.7922 9.58826L20.8533 9.62372L25.0176 12.0189L26.393 12.8104C26.4062 12.8172 26.4191 12.8248 26.4314 12.8331C26.5652 12.9135 26.6761 13.0268 26.7538 13.1621C26.8369 13.3025 26.8804 13.4628 26.8797 13.6259L26.8802 13.6237Z" fill="#0057FF"/>
</g>
<defs>
<clipPath id="clip0_569_88">
<rect width="26.88" height="32" fill="white"/>
</clipPath>
</defs>
</svg>
