<svg width="113" height="128" viewBox="0 0 113 128" fill="none" xmlns="http://www.w3.org/2000/svg">
<path d="M1.104 57.0613C1.104 23.6738 28.7793 1.48926 58.3587 1.48926C83.4658 1.48926 111.805 22.2126 111.805 57.0613C111.805 91.9101 83.0008 112.301 56.2332 112.301C29.4657 112.301 1.104 90.4489 1.104 57.0613Z" stroke="#547FEF" stroke-width="2.03908"/>
<path d="M58.4694 15.1499L32.366 57.8363L58.4694 46.3013V15.1499Z" fill="#D9E4FF"/>
<path d="M58.4694 98.6189L32.366 62.7739L58.4694 77.5636V98.6189Z" fill="#D9E4FF"/>
<path d="M58.4692 15.3711V46.4117L84.5726 57.8361L58.4692 15.3711Z" fill="#BFCDFA"/>
<path d="M84.3512 62.7739L58.4692 77.785V98.6189L84.3512 62.7739Z" fill="#BFCDFA"/>
<path d="M58.4694 72.8479V46.3018L32.366 57.8368L58.4694 72.8479Z" fill="#BFCCF9"/>
<path d="M58.4692 72.8479V46.3018L84.5726 57.8368L58.4692 72.8479Z" fill="#7799F2"/>
<path d="M56.1668 127.423C59.5172 127.423 62.2332 126.591 62.2332 125.563C62.2332 124.536 59.5172 123.704 56.1668 123.704C52.8164 123.704 50.1003 124.536 50.1003 125.563C50.1003 126.591 52.8164 127.423 56.1668 127.423Z" fill="#2CDAFF"/>
<path d="M50.3662 125.563L8.67603 100.412H102.772L61.6577 125.563H50.3662Z" fill="url(#paint0_radial_134_11753)"/>
<defs>
<radialGradient id="paint0_radial_134_11753" cx="0" cy="0" r="1" gradientUnits="userSpaceOnUse" gradientTransform="translate(56.2045 125.573) rotate(-90) scale(24.2228 90.6111)">
<stop stop-color="#2CDAFF" stop-opacity="0.37"/>
<stop offset="1" stop-color="#2CDAFF" stop-opacity="0"/>
</radialGradient>
</defs>
</svg>
