<svg width="114" height="131" viewBox="0 0 114 131" fill="none" xmlns="http://www.w3.org/2000/svg">
<path d="M56.7561 72.7945H58.9258C58.2395 72.7502 57.5753 72.6395 56.9111 72.4624L56.7561 72.7945Z" fill="#385CAF"/>
<path d="M56.7561 102.64H58.8594C58.1067 102.618 57.3982 102.507 56.7561 102.352V102.64Z" fill="#385CAF"/>
<path d="M62.04 42.4558L55.2635 47.0173H48.6371L55.1884 39.3022C54.9444 37.5752 54.0809 36.5052 52.8795 35.6417C51.4341 34.6093 46.4784 31.1366 45.5398 30.4796C44.62 29.8226 42.7053 29.3345 41.0534 30.4796C39.4015 31.6246 35.3281 34.3653 33.7325 35.4353C32.137 36.5052 31.3297 38.1008 31.3297 40.1281V50.077C31.3297 52.0293 31.9868 53.6624 33.5824 54.8075C35.1967 55.9525 38.9698 58.6369 40.6592 59.8007C42.3299 60.9645 43.8504 61.171 45.8589 59.8007C47.3606 58.7683 60.6133 49.7955 67.6151 45.0463L67.3523 41.4609H74.2603C74.9173 41.4609 75.6118 41.6111 76.2125 42.0053C77.6767 42.9814 89.1649 50.7528 90.5539 51.6914C91.943 52.63 92.8816 54.1317 92.8816 56.5532V75.3623C92.8816 77.934 92.0744 79.3794 90.6478 80.318C89.2212 81.2753 77.3951 89.2908 76.3251 89.9853C75.7244 90.3795 74.8797 90.6423 73.9975 90.6236H67.3899L67.9155 87.2447C64.0861 84.6542 58.9051 81.1439 58.0041 80.5245C56.6338 79.5859 55.4324 78.2531 55.4324 75.7565V72.0022L54.0809 71.195L55.545 64.4373H62.2089V70.5943C62.2089 72.7155 62.7345 74.3486 64.4615 75.5125C66.1697 76.6951 70.3558 79.5108 71.895 80.562C73.4343 81.5945 75.1238 81.4631 76.4378 80.562C77.7518 79.661 82.5948 76.3009 83.815 75.4374C85.0351 74.5739 85.9549 73.0159 85.9549 70.7633V61.1522C85.9549 59.0123 85.3542 57.3792 83.5146 56.1403C81.675 54.9013 77.3388 51.9354 76.1374 51.1283C74.936 50.3399 73.2278 50.2272 71.8763 51.1283C70.5247 52.0293 46.5535 68.2479 45.3709 69.0363C44.8453 69.3742 44.2258 69.5807 43.5688 69.6182C43.3811 69.637 43.1934 69.637 43.0056 69.6182H35.9851L36.5107 65.8639C32.625 63.2547 27.6881 59.8946 26.8621 59.3314C25.5481 58.4304 24.5532 56.9662 24.5532 54.7512V35.7919C24.5532 33.5393 25.1164 32.2629 26.8058 31.099C27.9697 30.2918 34.0141 26.1621 37.9936 23.4778L36.6609 20.6245H43.2684C43.4186 20.6245 43.5688 20.6245 43.7002 20.6245C44.3948 20.6621 45.0705 20.831 45.5211 21.1501C46.4972 21.8259 58.0417 29.7287 59.5058 30.7048C60.97 31.6809 62.04 33.1827 62.04 35.3977V42.4558Z" fill="#5416BA"/>
<path d="M55.3946 42.4558L48.6181 47.0172V40.4284C48.6181 37.9881 47.6795 36.6554 46.2341 35.6229C44.7887 34.5905 39.833 31.1178 38.8945 30.4608C37.9747 29.8037 36.0599 29.3157 34.408 30.4608C32.7374 31.6058 28.6827 34.3465 27.0872 35.4164C25.4916 36.4864 24.6844 38.082 24.6844 40.1093V50.0582C24.6844 52.0105 25.3414 53.6436 26.937 54.7887C28.5513 55.9337 32.3244 58.6181 34.0139 59.7819C35.6845 60.9457 37.205 61.1522 39.2136 59.7819C41.2409 58.4116 64.3674 42.7373 65.2309 42.1367C66.1132 41.536 68.0842 41.0291 69.5671 42.0052C71.0313 42.9814 82.5195 50.7528 83.9086 51.6914C85.2977 52.6299 86.2363 54.1317 86.2363 56.5532V75.3623C86.2363 77.934 85.4291 79.3794 84.0025 80.3179C82.5758 81.2753 70.7497 89.2908 69.6798 89.9853C68.6098 90.6798 66.7514 90.9802 65.2685 89.9853C63.8043 88.9904 52.6727 81.463 51.3024 80.5432C49.9321 79.6046 48.7307 78.2719 48.7307 75.7752V69.0363L55.5073 64.4748V70.6318C55.5073 72.753 56.0329 74.3861 57.7598 75.55C59.468 76.7326 63.6541 79.5483 65.1934 80.5995C66.7326 81.632 68.4221 81.5006 69.7361 80.5995C71.0501 79.6985 75.9119 76.3384 77.1133 75.4749C78.3334 74.6114 79.2533 73.0534 79.2533 70.8008V61.1898C79.2533 59.0498 78.6526 57.4167 76.813 56.1777C74.9734 54.9388 70.6371 51.9729 69.4357 51.1658C68.2344 50.3773 66.5262 50.2647 65.1746 51.1658C63.8231 52.0668 39.8518 68.2854 38.6692 69.0738C37.4866 69.8434 35.7221 69.8622 34.5207 69.0738C33.3193 68.2854 21.4932 60.2887 20.1605 59.3877C18.8464 58.4867 17.8516 57.0225 17.8516 54.8074V35.8482C17.8516 33.5956 18.4147 32.3191 20.1041 31.1553C21.7748 29.9915 33.6009 21.9385 34.7272 21.2064C35.8535 20.4743 37.8432 20.5306 38.8194 21.2064C39.7955 21.8822 51.34 29.785 52.8042 30.7611C54.2683 31.7372 55.3383 33.2389 55.3383 35.454V42.4558H55.3946Z" fill="#8247E5"/>
<path d="M2 57.5721C2 24.1846 29.6753 2 59.2547 2C84.3618 2 112.701 22.7233 112.701 57.5721C112.701 92.4209 83.8968 112.812 57.1292 112.812C30.3617 112.812 2 90.9596 2 57.5721Z" stroke="#547FEF" stroke-width="2.03908"/>
<path d="M57.5972 130.912C60.9476 130.912 63.6636 130.08 63.6636 129.053C63.6636 128.026 60.9476 127.193 57.5972 127.193C54.2468 127.193 51.5308 128.026 51.5308 129.053C51.5308 130.08 54.2468 130.912 57.5972 130.912Z" fill="#2CDAFF"/>
<path d="M51.7966 129.052L10.1064 103.901H104.203L63.0881 129.052H51.7966Z" fill="url(#paint0_radial_134_11633)"/>
<path d="M56.0474 13.9009C56.7559 13.5023 57.6857 13.3031 58.6821 13.2588H56.0474V13.9009Z" fill="#385CAF"/>
<defs>
<radialGradient id="paint0_radial_134_11633" cx="0" cy="0" r="1" gradientUnits="userSpaceOnUse" gradientTransform="translate(57.6308 129.047) rotate(-90) scale(24.2228 90.6111)">
<stop stop-color="#2CDAFF" stop-opacity="0.37"/>
<stop offset="1" stop-color="#2CDAFF" stop-opacity="0"/>
</radialGradient>
</defs>
</svg>
